<?xml version="1.0" encoding="iso-8859-1"?>
<!-- Generator: Adobe Illustrator 21.1.0, SVG Export Plug-In . SVG Version: 6.00 Build 0)  -->
<svg version="1.1" id="ES" xmlns="http://www.w3.org/2000/svg" xmlns:xlink="http://www.w3.org/1999/xlink" x="0px" y="0px"
	 width="125.8505px" height="26.7537px" viewBox="0 0 125.8505 26.7537" enable-background="new 0 0 125.8505 26.7537"
	 xml:space="preserve">
<g>
	<g>
		<g id="RGB_x5F_Icon_23_">
			
				<path id="_x38_x_x5F_iOS11-iBooks-Icon_x5F_US-EN_x5F_00-0013-932_x5F_v1_x5F_w_x5F_RGB_x5F_R3_23_" fill-rule="evenodd" clip-rule="evenodd" d="
				M25.1631,17.2918c0,0.3005,0.0001,0.6011-0.0017,0.9016c-0.0015,0.2532-0.0045,0.5063-0.0113,0.7593
				c-0.0149,0.5513-0.0474,1.1074-0.1453,1.6525c-0.0995,0.5536-0.2618,1.0688-0.5179,1.5717c-0.2515,0.494-0.58,0.946-0.972,1.338
				c-0.392,0.392-0.8441,0.7206-1.3382,0.9721c-0.5027,0.2559-1.0176,0.4182-1.5709,0.5177
				c-0.5454,0.098-1.1017,0.1305-1.6531,0.1454c-0.2531,0.0068-0.5062,0.0098-0.7594,0.0113
				c-0.3005,0.0018-0.6011,0.0017-0.9016,0.0017H7.8714c-0.3005,0-0.6011,0.0001-0.9016-0.0017
				c-0.2532-0.0015-0.5063-0.0045-0.7594-0.0113c-0.5515-0.0149-1.1078-0.0474-1.6531-0.1454
				c-0.5533-0.0994-1.0682-0.2618-1.5709-0.5177c-0.4941-0.2515-0.9462-0.5801-1.3382-0.9721
				c-0.3919-0.392-0.7205-0.844-0.972-1.338c-0.256-0.5029-0.4184-1.0181-0.5179-1.5717c-0.0979-0.5452-0.1304-1.1013-0.1453-1.6525
				c-0.0068-0.2531-0.0098-0.5062-0.0113-0.7593C-0.0001,17.8929,0,17.5923,0,17.2918V7.8714c0-0.3005-0.0001-0.6011,0.0017-0.9016
				C0.0032,6.7166,0.0062,6.4635,0.013,6.2104C0.0279,5.6591,0.0604,5.103,0.1583,4.5579c0.0995-0.5536,0.2618-1.0688,0.5179-1.5717
				c0.2515-0.494,0.58-0.946,0.972-1.338c0.392-0.392,0.8441-0.7206,1.3382-0.9721C3.4891,0.4202,4.004,0.2579,4.5573,0.1584
				c0.5454-0.098,1.1017-0.1305,1.6531-0.1454c0.2531-0.0068,0.5062-0.0098,0.7594-0.0113C7.2703-0.0001,7.5708,0,7.8714,0h9.4204
				c0.3005,0,0.6011-0.0001,0.9016,0.0017c0.2532,0.0015,0.5063,0.0045,0.7594,0.0113c0.5515,0.0149,1.1078,0.0474,1.6531,0.1454
				c0.5533,0.0994,1.0682,0.2618,1.5709,0.5177c0.4941,0.2515,0.9462,0.5801,1.3382,0.9721c0.392,0.392,0.7205,0.844,0.972,1.338
				c0.2561,0.5029,0.4184,1.0181,0.5179,1.5717c0.0979,0.5452,0.1304,1.1013,0.1453,1.6525
				c0.0068,0.2531,0.0098,0.5062,0.0113,0.7594c0.0018,0.3005,0.0017,0.6011,0.0017,0.9016V17.2918z M4.7034,6.7147
				c-0.625,0.4576-0.6668,0.9172-0.6668,1.3391c-0.0002,2.2707,0.0002,7.6308,0,9.9015c0,0.4219,0.2811,0.4746,0.6668,0.1891
				c2.0929-1.5186,4.6556-1.4414,6.1535-0.284c1.4622,1.0824,1.4626,2.5114,1.4626,2.0895c0-2.2707,0-7.9318,0-10.2024
				c0-1.8404-0.2533-2.0279-0.6666-2.6598C10.0148,5.1698,6.7961,5.1961,4.7034,6.7147z M21.1266,17.9553
				c0,0.4219-0.2811,0.4746-0.6668,0.1891c-2.0929-1.5186-4.6556-1.4414-6.1535-0.284c-1.4622,1.0824-1.4626,2.5114-1.4626,2.0895
				c0-2.2707,0-7.9318,0-10.2024c0-1.8404,0.2533-2.0279,0.6666-2.6598c1.6382-1.9179,4.8569-1.8917,6.9496-0.3731
				c0.625,0.4576,0.6668,0.9172,0.6668,1.3391C21.1268,10.3245,21.1264,15.6846,21.1266,17.9553z"/>
		</g>
	</g>
	<g>
		<path d="M38.5931,20.4021h-4.7334l-1.1367,3.3564h-2.0049l4.4834-12.4185h2.083l4.4834,12.4185h-2.0391L38.5931,20.4021z
			 M34.35,18.8533h3.752l-1.8496-5.4473h-0.0518L34.35,18.8533z"/>
		<path d="M51.4506,19.2322c0,2.8652-1.5059,4.6816-3.7783,4.6816c-1.2988,0-2.332-0.6377-2.8486-1.6445h-0.043v4.4844h-1.8584
			V14.7048h1.7988v1.5576h0.0342c0.5332-1.041,1.5752-1.7041,2.8828-1.7041C49.9359,14.5584,51.4506,16.366,51.4506,19.2322z
			 M49.5404,19.2322c0-1.8936-0.9209-3.1074-2.3926-3.1074c-1.4199,0-2.375,1.2393-2.375,3.1074
			c0,1.8848,0.9463,3.1064,2.375,3.1064C48.6195,22.3386,49.5404,21.1335,49.5404,19.2322z"/>
		<path d="M61.4154,19.2322c0,2.8652-1.5059,4.6816-3.7783,4.6816c-1.2988,0-2.332-0.6377-2.8486-1.6445h-0.043v4.4844h-1.8584
			V14.7048h1.7988v1.5576h0.0342c0.5332-1.041,1.5752-1.7041,2.8828-1.7041C59.9008,14.5584,61.4154,16.366,61.4154,19.2322z
			 M59.5053,19.2322c0-1.8936-0.9209-3.1074-2.3926-3.1074c-1.4199,0-2.375,1.2393-2.375,3.1074
			c0,1.8848,0.9463,3.1064,2.375,3.1064C58.5844,22.3386,59.5053,21.1335,59.5053,19.2322z"/>
		<path d="M62.9203,11.3401h1.8594v12.4185h-1.8594V11.3401z"/>
		<path d="M74.4555,21.0994c-0.2588,1.6523-1.8242,2.8311-3.8984,2.8311c-2.6592,0-4.2686-1.7988-4.2686-4.6553
			c0-2.8398,1.6348-4.7334,4.1904-4.7334c2.5137,0,4.0801,1.7725,4.0801,4.5176v0.6367h-6.3945v0.1123
			c0,1.5752,0.9463,2.6162,2.4355,2.6162c1.0586,0,1.8418-0.5332,2.0908-1.3252H74.4555z M68.1732,18.3972h4.5264
			c-0.043-1.3857-0.9209-2.3584-2.2207-2.3584C69.1801,16.0388,68.268,17.0291,68.1732,18.3972z"/>
		<path d="M79.8012,23.7585V11.3401h4.957c2.2031,0,3.6494,1.2222,3.6494,3.0981c0,1.3164-0.9727,2.4961-2.2119,2.7021v0.0693
			c1.6865,0.1895,2.8223,1.3848,2.8223,3.0371c0,2.1865-1.5918,3.5117-4.2334,3.5117H79.8012z M81.7289,16.6238h2.1602
			c1.6699,0,2.5908-0.6885,2.5908-1.9189c0-1.1523-0.792-1.79-2.1865-1.79h-2.5645V16.6238z M84.3881,22.1834
			c1.7383,0,2.6592-0.7139,2.6592-2.0566s-0.9463-2.0312-2.7705-2.0312h-2.5479v4.0879H84.3881z"/>
		<path d="M90.2367,19.2322c0-2.9092,1.7119-4.6904,4.2939-4.6904s4.2949,1.7812,4.2949,4.6904c0,2.917-1.7041,4.6982-4.2949,4.6982
			C91.9408,23.9304,90.2367,22.1492,90.2367,19.2322z M96.932,19.2322c0-2.0059-0.9463-3.1592-2.4014-3.1592
			c-1.4541,0-2.4004,1.1533-2.4004,3.1592c0,2.0137,0.9463,3.167,2.4004,3.167C95.9935,22.3992,96.932,21.2459,96.932,19.2322z"/>
		<path d="M100.1303,19.2322c0-2.9092,1.7119-4.6904,4.2939-4.6904c2.5825,0,4.2954,1.7812,4.2954,4.6904
			c0,2.917-1.7041,4.6982-4.2954,4.6982C101.8344,23.9304,100.1303,22.1492,100.1303,19.2322z M106.8261,19.2322
			c0-2.0059-0.9473-3.1592-2.4019-3.1592c-1.4541,0-2.4014,1.1533-2.4014,3.1592c0,2.0137,0.9473,3.167,2.4014,3.167
			C105.8876,22.3992,106.8261,21.2459,106.8261,19.2322z"/>
		<path d="M115.7665,14.7048h2.1855l-3.752,3.8984l3.8984,5.1553h-2.1602l-3.0723-4.0186l-0.7744,0.7656v3.2529h-1.8594V11.3401
			h1.8594v7.2466h0.0176L115.7665,14.7048z"/>
		<path d="M122.1063,14.5418c2.1084,0,3.4775,1.1699,3.5371,2.8398h-1.7471c-0.1025-0.8779-0.748-1.4287-1.79-1.4287
			c-1.0068,0-1.6777,0.4902-1.6777,1.2139c0,0.5674,0.4131,0.9551,1.3945,1.1787l1.4717,0.3359
			c1.8496,0.4297,2.5557,1.1533,2.5557,2.4609c0,1.6523-1.541,2.7881-3.6748,2.7881c-2.2637,0-3.623-1.1104-3.7949-2.8311h1.8408
			c0.1729,0.9463,0.8184,1.4111,1.9541,1.4111c1.1191,0,1.8066-0.4648,1.8066-1.2051c0-0.585-0.335-0.9287-1.3252-1.1523
			l-1.4717-0.3447c-1.7207-0.3955-2.5723-1.2217-2.5723-2.5391C118.6132,15.6521,120.0243,14.5418,122.1063,14.5418z"/>
	</g>
	<g>
		<g id="XMLID_96_">
			<g id="XMLID_97_">
				<g id="XMLID_98_">
					<g>
						<path d="M31.3676,4.1428c0-1.9639,1.0449-3.1768,2.7275-3.1768c1.3345,0,2.3667,0.8647,2.5181,2.0981h-0.936
							c-0.1763-0.7427-0.7847-1.2207-1.582-1.2207c-1.0864,0-1.7666,0.8853-1.7666,2.2993c0,1.4097,0.6802,2.2954,1.771,2.2954
							c0.8013,0,1.4097-0.4321,1.5776-1.1162h0.936c-0.168,1.1958-1.1626,1.9932-2.5137,1.9932
							C32.4169,7.3152,31.3676,6.1023,31.3676,4.1428z"/>
						<path d="M37.6342,4.8811c0-1.4727,0.8223-2.3706,2.1567-2.3706c1.3301,0,2.1523,0.8979,2.1523,2.3706
							c0,1.4814-0.8179,2.375-2.1523,2.375C38.452,7.2561,37.6342,6.3626,37.6342,4.8811z M41.016,4.8811
							c0-0.9902-0.4448-1.5693-1.2251-1.5693c-0.7847,0-1.2256,0.5791-1.2256,1.5693c0,0.999,0.4409,1.5737,1.2256,1.5737
							C40.5712,6.4548,41.016,5.8757,41.016,4.8811z"/>
						<path d="M43.1464,2.5984h0.8687v0.7261h0.0669c0.2227-0.5078,0.6758-0.814,1.3638-0.814c1.0195,0,1.582,0.6128,1.582,1.6992
							v2.9585h-0.9023V4.4363c0-0.7339-0.3188-1.0991-0.9858-1.0991c-0.6675,0-1.0913,0.4448-1.0913,1.1582v2.6729h-0.9019V2.5984z"
							/>
						<path d="M50.0858,2.5105c1.0278,0,1.6992,0.4785,1.7876,1.2842h-0.8643c-0.084-0.3359-0.4116-0.5498-0.9233-0.5498
							c-0.5034,0-0.8853,0.2393-0.8853,0.5957c0,0.2729,0.2305,0.4448,0.7256,0.5581l0.7598,0.1763
							c0.8687,0.2017,1.2754,0.5747,1.2754,1.2461c0,0.8604-0.8013,1.4351-1.8921,1.4351c-1.0869,0-1.7964-0.4907-1.876-1.3008
							h0.9023c0.1133,0.3525,0.4487,0.5708,0.9946,0.5708c0.562,0,0.9604-0.2515,0.9604-0.6167
							c0-0.2729-0.2139-0.4492-0.6709-0.5581l-0.7974-0.1846c-0.8687-0.2056-1.2715-0.5962-1.2715-1.2759
							C48.3109,3.0813,49.0536,2.5105,50.0858,2.5105z"/>
						<path d="M53.1859,2.5984h0.8979v4.5698h-0.8979V2.5984z M53.2826,1.9734l0.7256-1.4517h0.9736l-0.9775,1.4517H53.2826z"/>
						<path d="M55.4852,7.6257h0.9229c0.0757,0.3315,0.4575,0.5454,1.0659,0.5454c0.751,0,1.1958-0.3569,1.1958-0.9609v-0.877
							h-0.0669c-0.2773,0.4951-0.7808,0.7676-1.4102,0.7676c-1.1665,0-1.8882-0.9019-1.8882-2.27
							c0-1.3931,0.73-2.3076,1.8965-2.3076c0.6294,0,1.1792,0.3105,1.4351,0.8057h0.0718V2.5984h0.8643v4.6074
							c0,1.0449-0.8184,1.708-2.1108,1.708C56.3202,8.9138,55.5814,8.4021,55.4852,7.6257z M58.6869,4.8269
							c0-0.9106-0.4702-1.4941-1.2383-1.4941c-0.7759,0-1.2124,0.5835-1.2124,1.4941s0.4365,1.4937,1.2124,1.4937
							C58.2211,6.3206,58.6869,5.7415,58.6869,4.8269z"/>
						<path d="M64.8534,7.1682h-0.8687V6.4421h-0.0713c-0.2227,0.5205-0.6885,0.814-1.3809,0.814
							c-1.0112,0-1.5732-0.6167-1.5732-1.6909V2.5984h0.9019v2.7319c0,0.7383,0.2979,1.0908,0.9609,1.0908
							c0.7305,0,1.1289-0.4321,1.1289-1.1494V2.5984h0.9023V7.1682z"/>
						<path d="M70.1473,5.9343c-0.1968,0.8145-0.9355,1.3218-1.9805,1.3218c-1.3091,0-2.1104-0.8979-2.1104-2.3579
							c0-1.4604,0.8179-2.3877,2.1064-2.3877c1.2715,0,2.0391,0.8687,2.0391,2.3037v0.3145h-3.2266v0.0508
							c0.0293,0.8013,0.4951,1.3091,1.2168,1.3091c0.5454,0,0.9189-0.1973,1.0869-0.5542H70.1473z M66.9755,4.4617h2.3076
							c-0.021-0.7173-0.4575-1.1831-1.1245-1.1831S67.0258,3.7483,66.9755,4.4617z"/>
						<path d="M71.4476,0.8152h0.9019v6.353h-0.9019V0.8152z"/>
						<path d="M73.599,4.8811c0-1.4727,0.8223-2.3706,2.1567-2.3706c1.3301,0,2.1523,0.8979,2.1523,2.3706
							c0,1.4814-0.8184,2.375-2.1523,2.375C74.4169,7.2561,73.599,6.3626,73.599,4.8811z M76.9813,4.8811
							c0-0.9902-0.4453-1.5693-1.2256-1.5693c-0.7852,0-1.2256,0.5791-1.2256,1.5693c0,0.999,0.4404,1.5737,1.2256,1.5737
							C76.536,6.4548,76.9813,5.8757,76.9813,4.8811z"/>
						<path d="M85.4511,5.9343c-0.1973,0.8145-0.9355,1.3218-1.9805,1.3218c-1.3096,0-2.1113-0.8979-2.1113-2.3579
							c0-1.4604,0.8184-2.3877,2.1064-2.3877c1.2715,0,2.04,0.8687,2.04,2.3037v0.3145h-3.2275v0.0508
							c0.0293,0.8013,0.4951,1.3091,1.2168,1.3091c0.5459,0,0.9189-0.1973,1.0869-0.5542H85.4511z M82.2782,4.4617h2.3086
							c-0.0215-0.7173-0.458-1.1831-1.125-1.1831S82.329,3.7483,82.2782,4.4617z"/>
						<path d="M86.7079,2.5984h0.8691v0.7261h0.0674c0.2217-0.5078,0.6748-0.814,1.3633-0.814c1.0195,0,1.582,0.6128,1.582,1.6992
							v2.9585h-0.9023V4.4363c0-0.7339-0.3184-1.0991-0.9863-1.0991c-0.667,0-1.0908,0.4448-1.0908,1.1582v2.6729h-0.9023V2.5984z"
							/>
					</g>
				</g>
			</g>
		</g>
	</g>
</g>
</svg>
